<svg version="1.1" id="Layer_1" xmlns="http://www.w3.org/2000/svg" xmlns:xlink="http://www.w3.org/1999/xlink" x="0px" y="0px"
	 width="100%" viewBox="0 0 759 329" enable-background="new 0 0 759 329" xml:space="preserve">
<path fill="#000000" opacity="1.000000" stroke="none" 
	d="
M760.000000,126.999977 
	C760.000000,194.596298 760.000000,262.192596 760.000000,330.000000 
	C687.645935,330.000000 615.291626,330.000000 542.365601,329.613953 
	C545.131165,328.178497 548.588928,327.406677 551.780090,326.020782 
	C558.074219,323.287384 564.147644,320.044586 570.449097,317.329895 
	C576.286926,314.815033 581.430969,311.565826 585.392578,306.481934 
	C587.072327,304.326385 589.348816,302.644897 591.121216,300.550781 
	C598.157227,292.237457 605.697510,284.261230 611.894592,275.355408 
	C617.041321,267.958923 620.735535,259.517883 624.758362,251.383835 
	C628.018005,244.792877 631.366882,238.156677 633.688599,231.210449 
	C638.055969,218.144272 641.850708,204.879700 645.621765,191.623138 
	C649.312927,178.647202 653.701355,165.880295 655.230164,152.300873 
	C656.161621,144.026993 659.030884,135.990280 660.518677,127.754692 
	C662.009949,119.499313 663.019531,111.144646 663.860107,102.795227 
	C664.013000,101.276749 662.748596,98.764137 661.433899,98.095490 
	C655.471252,95.062782 640.114990,99.938858 637.691956,108.080231 
	C633.664185,121.613174 628.583923,135.008377 622.325867,147.659729 
	C613.551880,165.397369 603.093994,182.295334 590.047791,197.338165 
	C585.200562,202.927170 579.131653,207.504028 574.608521,213.312363 
	C570.703491,218.326981 565.415527,220.044510 559.608154,223.132675 
	C559.067993,220.094299 557.705017,217.428604 558.403564,215.515900 
	C561.970825,205.749405 565.945312,196.124008 570.024536,186.554657 
	C573.101685,179.335953 577.197693,172.493759 579.690002,165.096451 
	C583.867371,152.697815 587.388916,140.058151 590.682861,127.388992 
	C592.849609,119.055359 592.742554,110.632607 586.247559,103.886261 
	C580.877747,98.308693 573.594116,97.221054 566.503235,98.289978 
	C563.624939,98.723854 558.778748,99.346741 558.875549,105.184875 
	C559.009521,113.264175 559.375183,121.676407 557.406494,129.374466 
	C554.491333,140.773499 549.696350,151.701508 545.551941,162.773987 
	C540.431396,176.454300 534.876709,189.978989 530.054688,203.761627 
	C527.141907,212.087143 525.002991,220.691559 526.894897,229.778641 
	C527.721680,233.750107 532.637451,240.845123 536.010376,241.632568 
	C543.894775,243.473312 551.739014,242.834000 559.120911,239.851868 
	C567.980103,236.272964 576.337402,231.779053 583.989624,225.769165 
	C593.009216,218.685425 600.815308,210.712662 607.080688,201.146652 
	C607.848267,199.974716 609.214539,199.194901 610.565857,198.001526 
	C611.050537,199.377350 611.599854,200.106842 611.433533,200.589890 
	C609.214111,207.034515 606.957275,213.468109 604.570251,219.852295 
	C603.556824,222.562698 602.308411,225.196655 601.011902,227.787888 
	C595.431824,238.940140 590.578735,250.560989 583.933716,261.043030 
	C578.445190,269.700775 571.016296,277.182892 564.088074,284.861847 
	C550.323792,300.117401 532.778748,309.062988 513.079651,313.829407 
	C506.027832,315.535675 498.663605,315.950958 490.880646,317.033569 
	C491.242584,318.109039 491.283600,319.916779 492.172821,320.570068 
	C495.371613,322.920258 498.858398,324.878113 502.232849,326.989746 
	C503.825958,327.986664 505.411194,328.996185 507.000000,330.000000 
	C338.454987,330.000000 169.910004,330.000000 1.000000,330.000000 
	C1.000000,296.646667 1.000000,263.291992 1.377555,229.382492 
	C2.427577,229.733246 3.401946,230.542816 3.725187,231.559433 
	C6.540964,240.415192 13.222771,245.100235 22.231249,246.154816 
	C30.753189,247.152435 36.808311,242.084656 43.526680,238.852707 
	C47.933193,236.732880 51.630753,233.028290 55.419106,229.769852 
	C58.419147,227.189484 61.198009,224.319717 63.851372,221.376755 
	C67.110062,217.762421 70.136086,213.938278 73.827187,209.530777 
	C75.019531,216.388245 76.120964,222.094345 76.988586,227.835785 
	C79.202217,242.484451 91.317200,245.868820 103.823441,243.064362 
	C121.614853,239.074768 133.012360,226.317337 143.958359,213.155319 
	C148.294128,207.941772 151.892471,202.119385 155.959427,196.673416 
	C156.624054,195.783432 157.979797,195.409546 159.999649,194.215897 
	C159.999649,202.740143 160.356506,210.180069 159.912750,217.571930 
	C159.306702,227.667191 160.795822,237.370026 165.346786,246.267899 
	C169.009964,253.429993 172.440979,260.758545 180.840012,264.616180 
	C187.094589,267.488831 193.210098,268.715088 199.663116,267.843109 
	C204.078110,267.246552 208.341141,265.328613 212.549484,263.686951 
	C212.998154,263.511932 213.191223,260.701355 212.543396,260.001190 
	C205.837067,252.753296 198.230301,246.206619 196.342056,235.696335 
	C195.480408,230.900208 193.563644,226.239334 193.142410,221.428070 
	C191.549042,203.228455 195.863846,185.701981 200.006516,168.200790 
	C200.637802,165.533905 202.034241,163.056076 202.784988,160.408081 
	C205.058411,152.389572 206.993347,144.270950 209.422333,136.301727 
	C212.657440,125.687790 216.068710,115.120651 219.702194,104.636650 
	C225.017639,89.299599 230.478485,74.010139 236.112656,58.787476 
	C239.118912,50.664982 242.747284,42.774586 245.856567,34.687805 
	C248.427094,28.002254 250.326508,21.044788 253.138306,14.470859 
	C254.959076,10.213949 253.719711,7.046084 249.114670,4.008820 
	C247.930206,3.227593 247.030502,2.014632 246.000000,1.000003 
	C417.213165,1.000000 588.426331,1.000000 760.000000,1.000000 
	C760.000000,37.353432 760.000000,73.708061 759.605591,110.631943 
	C758.152588,109.472816 757.466858,107.270706 755.973206,106.095230 
	C748.072083,99.877197 739.113159,96.843773 728.898987,96.917267 
	C722.329712,96.964539 716.447021,98.563179 710.227295,100.550819 
	C700.172302,103.764114 692.833618,110.242325 687.346619,118.228882 
	C674.444153,137.008957 678.237549,156.656464 686.828369,175.913162 
	C688.683777,180.072021 692.200195,183.492844 694.034546,187.657501 
	C698.285706,197.309525 702.261475,207.108719 705.742798,217.060272 
	C707.000305,220.654907 706.076477,224.135498 701.480286,226.251022 
	C694.743958,229.351624 689.451843,225.566605 684.756165,222.759109 
	C678.547241,219.046906 673.388489,213.492661 668.056763,208.436554 
	C665.542114,206.051880 662.965149,205.125793 660.038208,206.673569 
	C651.970215,210.939941 650.597961,228.255966 658.927612,233.009521 
	C665.953064,237.018784 673.099976,240.312378 681.514893,241.554825 
	C696.112549,243.710159 709.938599,243.086060 721.802917,233.866592 
	C730.767395,226.900482 735.506592,216.554489 734.598511,205.358246 
	C733.606689,193.128067 729.096069,181.501984 723.823242,170.299149 
	C717.480896,156.824097 709.906433,143.862976 708.107422,128.561829 
	C707.261047,121.362755 712.066711,112.810509 718.639648,113.102303 
	C730.938599,113.648308 740.056152,119.993340 746.956299,129.915878 
	C747.985291,131.395584 749.774475,133.888046 750.611206,133.664429 
	C752.908508,133.050430 754.940491,131.316696 756.968628,129.873123 
	C758.091736,129.073715 758.996704,127.967758 760.000000,126.999977 
M271.366882,215.848633 
	C273.192108,215.900314 275.017303,215.952011 276.960785,216.904861 
	C276.975128,218.737213 277.089203,220.575150 276.986725,222.400940 
	C276.512207,230.854889 280.619324,237.095932 287.578003,240.797852 
	C295.713379,245.125702 305.122925,243.500290 313.019196,240.997009 
	C322.247742,238.071396 330.720947,232.125900 337.064178,224.285278 
	C343.217926,216.678848 349.439087,209.016647 354.573029,200.724136 
	C360.621796,190.953964 365.550476,180.488770 370.923462,170.303116 
	C371.958893,168.340179 372.803436,166.276520 374.081116,163.512848 
	C383.011322,175.344742 394.487213,174.059265 407.088409,171.401474 
	C406.626862,173.622879 406.445953,175.278946 405.935028,176.826004 
	C402.447754,187.384628 397.543640,197.700546 395.776794,208.531952 
	C394.323883,217.438934 396.416595,226.963669 397.310730,236.178436 
	C397.474976,237.870911 399.093323,239.890076 400.611725,240.897125 
	C405.500366,244.139359 409.990875,246.698578 416.943329,246.476334 
	C427.923950,246.125351 436.311951,240.891754 444.845093,235.923172 
	C450.310944,232.740570 454.441772,227.175858 458.944580,222.462631 
	C461.581543,219.702408 463.773621,216.517166 466.294464,213.362091 
	C466.899628,218.289459 467.034271,222.733078 468.078186,226.951721 
	C469.138367,231.236099 470.262726,235.929276 472.834961,239.325500 
	C478.025452,246.178589 483.781677,252.256546 492.720825,255.300461 
	C504.815613,259.418915 516.778320,256.807861 524.926880,245.676071 
	C520.957031,244.081482 517.238892,242.275391 513.332581,241.088608 
	C506.669495,239.064316 501.648956,234.135620 499.458221,228.598038 
	C496.780548,221.829575 495.859070,214.048080 497.905273,206.293198 
	C500.571320,196.189041 501.882355,185.706100 504.874512,175.714966 
	C508.114899,164.894882 512.876526,154.538315 516.423950,143.797684 
	C517.581299,140.293503 518.880554,135.689255 515.038513,132.766144 
	C510.420776,129.252838 498.735413,131.992310 494.743713,136.463593 
	C486.995636,145.142578 483.374756,156.131271 477.623322,165.916931 
	C471.302521,176.671387 465.531677,187.756287 459.003113,198.378784 
	C454.902374,205.051071 450.014740,211.267792 445.173462,217.448685 
	C440.721008,223.133118 435.145935,227.599091 428.153809,229.800674 
	C425.222076,230.723770 422.666168,229.908463 422.999420,226.007568 
	C423.334991,222.079788 423.081360,217.852371 424.487396,214.312958 
	C428.423645,204.404007 432.292725,194.319763 437.651611,185.160873 
	C444.904907,172.764297 452.428253,160.201538 461.865723,149.500320 
	C470.896515,139.260208 480.781250,129.080124 493.587769,123.109772 
	C498.677002,120.737175 503.132050,117.145630 509.695282,117.296158 
	C515.412109,117.427284 521.198914,114.507111 527.540527,112.775238 
	C525.905884,110.026894 524.860535,107.795166 523.395203,105.885727 
	C516.202332,96.513031 496.460999,92.462120 487.482086,96.322060 
	C480.603729,99.279015 473.236145,100.807831 466.874756,105.368904 
	C456.885651,112.531013 446.406036,118.906738 438.653229,128.801422 
	C432.100769,137.164093 425.074768,145.154434 418.316437,153.357422 
	C411.332062,161.834808 396.015808,163.128540 389.743622,154.837921 
	C384.726654,148.206482 378.973724,141.106140 383.014618,131.886169 
	C385.939026,125.213615 386.423309,118.567734 386.144531,111.422447 
	C385.883545,104.733826 385.623657,98.523804 381.577087,92.679489 
	C378.320587,87.976234 373.101379,85.361183 368.095306,88.108093 
	C364.537415,90.060387 361.490021,92.943047 358.954163,94.853447 
	C358.701660,97.013405 358.610901,98.387276 358.371460,99.734726 
	C357.310272,105.706726 355.505066,111.646805 355.296936,117.644516 
	C355.041382,125.008659 356.625000,131.841354 354.155396,139.793640 
	C351.801147,147.374588 347.475616,154.172913 345.882690,161.975189 
	C345.542664,163.640732 342.837799,164.824585 342.500427,166.489334 
	C340.942596,174.177444 336.609406,180.576401 333.263489,187.411911 
	C330.273560,193.520081 326.977600,199.500900 323.461731,205.323578 
	C319.046265,212.636124 315.317047,220.552078 307.883057,225.546143 
	C306.143860,226.714508 304.247498,227.648987 302.423462,228.691071 
	C301.603271,226.458847 299.742157,224.018753 300.139404,222.029663 
	C302.069092,212.366684 304.232483,202.714386 307.033173,193.271866 
	C309.619141,184.553223 313.002838,176.061401 316.247894,167.550797 
	C319.501221,159.018555 322.592438,150.378311 326.600067,142.199646 
	C328.568359,138.182877 327.265839,135.125900 325.934143,131.997513 
	C323.893677,127.204132 315.183014,124.956490 311.625397,128.363419 
	C308.978729,130.897964 306.844574,134.155853 305.127777,137.430084 
	C302.411346,142.610870 300.456635,148.189026 297.776001,153.391052 
	C294.233429,160.265610 290.482452,167.048630 286.489532,173.671127 
	C281.819366,181.416931 277.059296,189.136673 271.835724,196.511810 
	C267.651581,202.419418 262.985931,208.048767 258.023651,213.321274 
	C254.487000,217.078979 250.103226,220.039368 246.097504,223.355576 
	C245.643677,222.989212 245.189865,222.622864 244.736038,222.256500 
	C245.293289,218.537460 245.221512,214.581161 246.518906,211.141251 
	C251.572464,197.742508 256.558197,184.277191 262.523529,171.274475 
	C268.856995,157.469315 275.792480,144.071442 279.297211,129.051010 
	C281.917664,117.820358 277.650818,107.214134 266.903625,103.504189 
	C261.599945,101.673332 256.503967,103.432236 252.385925,106.374550 
	C250.610977,107.642731 250.735275,111.589371 250.027573,114.327171 
	C247.962845,122.314842 246.291733,130.428207 243.768631,138.267746 
	C240.093506,149.686722 233.431351,159.824539 228.960556,170.936340 
	C227.687851,174.099548 225.330048,176.832092 224.104721,180.007156 
	C221.762024,186.077499 219.865295,192.320435 217.801178,198.497665 
	C214.220535,209.213303 212.163696,219.867325 215.746902,231.209579 
	C218.910217,241.222794 230.414932,245.096237 238.472122,242.472916 
	C245.616180,240.146896 251.382172,236.334686 256.388336,231.068481 
	C261.350189,225.848938 266.140808,220.466675 271.366882,215.848633 
z"/>
<path fill="#000000" opacity="1.000000" stroke="none" 
	d="
M0.999999,205.000000 
	C1.000000,137.068115 1.000000,69.136230 1.000000,1.000000 
	C78.354111,1.000000 155.708389,1.000000 233.658203,1.368105 
	C232.857376,2.480963 231.424957,3.166053 230.072754,3.983763 
	C227.766525,5.378402 224.280212,6.357208 223.455887,8.389399 
	C220.562057,15.523506 215.331604,21.413555 213.607254,29.261026 
	C212.315826,35.138226 208.812469,40.512974 206.454285,46.178173 
	C204.974762,49.732475 203.783951,53.407398 202.477768,57.033306 
	C199.930496,64.104477 197.494293,71.218300 194.786057,78.227127 
	C194.037476,80.164436 191.990082,81.642334 191.401962,83.591507 
	C189.328293,90.464272 188.063492,97.602478 185.691864,104.359192 
	C181.637283,115.910698 177.486191,127.479828 172.445663,138.620819 
	C166.028427,152.804749 158.795990,166.626709 151.668274,180.477753 
	C149.777283,184.152420 146.528809,187.140900 144.723984,190.844223 
	C142.751450,194.891678 139.409363,197.854553 136.787979,201.201950 
	C129.929123,209.960388 121.893234,217.884781 109.005913,220.823959 
	C107.394829,217.440964 104.298363,213.887756 104.290909,210.328079 
	C104.273796,202.149994 104.671310,193.660583 106.877998,185.856689 
	C110.770523,172.090897 116.174072,158.754562 120.858795,145.208618 
	C121.764381,142.590103 122.551727,139.870865 122.906143,137.134918 
	C123.508514,132.484818 120.191574,129.130142 115.554726,130.013641 
	C112.269180,130.639664 108.990173,131.938736 106.036697,133.542313 
	C98.792625,137.475479 96.445389,145.163010 92.615707,151.746872 
	C84.862411,165.076111 76.961952,178.322144 68.926353,191.482910 
	C67.176903,194.348190 64.432182,196.587082 62.455482,199.337036 
	C59.971382,202.792892 58.292370,206.942444 55.402477,209.967880 
	C49.223225,216.436966 42.707916,222.638016 35.847618,228.371353 
	C33.789680,230.091232 30.104776,230.430069 27.230864,230.264206 
	C26.365231,230.214233 25.013145,226.287125 25.136225,224.210312 
	C25.335644,220.845337 26.143980,217.361145 27.462234,214.252563 
	C29.687717,209.004669 32.352222,203.921906 35.123211,198.931335 
	C39.366047,191.289963 43.314487,183.399734 48.366615,176.312881 
	C56.181915,165.349945 64.455185,154.661194 73.204567,144.429367 
	C84.746109,130.932312 98.412537,120.022118 115.852188,115.038284 
	C122.590324,113.112679 129.638901,112.273384 136.649567,110.919189 
	C136.775970,107.176125 129.189835,96.319443 124.998055,95.075371 
	C117.518684,92.855583 109.879555,90.307358 102.065033,92.132240 
	C95.407021,93.687050 88.489883,94.519684 82.598022,98.985245 
	C74.219147,105.335770 64.286522,109.932213 56.855011,117.165665 
	C46.370117,127.371140 36.071415,138.018631 27.971558,150.442368 
	C25.631084,154.032272 22.564987,157.176743 20.447691,160.877884 
	C17.406197,166.194550 14.642154,171.714325 12.282729,177.365753 
	C9.226950,184.685135 6.740023,192.240265 3.885618,199.646652 
	C3.162440,201.523102 1.974420,203.220383 0.999999,205.000000 
z"/>
<path fill="#044EA2" opacity="1.000000" stroke="none" 
	d="
M0.999999,205.468628 
	C1.974420,203.220383 3.162440,201.523102 3.885618,199.646652 
	C6.740023,192.240265 9.226950,184.685135 12.282729,177.365753 
	C14.642154,171.714325 17.406197,166.194550 20.447691,160.877884 
	C22.564987,157.176743 25.631084,154.032272 27.971558,150.442368 
	C36.071415,138.018631 46.370117,127.371140 56.855011,117.165665 
	C64.286522,109.932213 74.219147,105.335770 82.598022,98.985245 
	C88.489883,94.519684 95.407021,93.687050 102.065033,92.132240 
	C109.879555,90.307358 117.518684,92.855583 124.998055,95.075371 
	C129.189835,96.319443 136.775970,107.176125 136.649567,110.919189 
	C129.638901,112.273384 122.590324,113.112679 115.852188,115.038284 
	C98.412537,120.022118 84.746109,130.932312 73.204567,144.429367 
	C64.455185,154.661194 56.181915,165.349945 48.366615,176.312881 
	C43.314487,183.399734 39.366047,191.289963 35.123211,198.931335 
	C32.352222,203.921906 29.687717,209.004669 27.462234,214.252563 
	C26.143980,217.361145 25.335644,220.845337 25.136225,224.210312 
	C25.013145,226.287125 26.365231,230.214233 27.230864,230.264206 
	C30.104776,230.430069 33.789680,230.091232 35.847618,228.371353 
	C42.707916,222.638016 49.223225,216.436966 55.402477,209.967880 
	C58.292370,206.942444 59.971382,202.792892 62.455482,199.337036 
	C64.432182,196.587082 67.176903,194.348190 68.926353,191.482910 
	C76.961952,178.322144 84.862411,165.076111 92.615707,151.746872 
	C96.445389,145.163010 98.792625,137.475479 106.036697,133.542313 
	C108.990173,131.938736 112.269180,130.639664 115.554726,130.013641 
	C120.191574,129.130142 123.508514,132.484818 122.906143,137.134918 
	C122.551727,139.870865 121.764381,142.590103 120.858795,145.208618 
	C116.174072,158.754562 110.770523,172.090897 106.877998,185.856689 
	C104.671310,193.660583 104.273796,202.149994 104.290909,210.328079 
	C104.298363,213.887756 107.394829,217.440964 109.005913,220.823959 
	C121.893234,217.884781 129.929123,209.960388 136.787979,201.201950 
	C139.409363,197.854553 142.751450,194.891678 144.723984,190.844223 
	C146.528809,187.140900 149.777283,184.152420 151.668274,180.477753 
	C158.795990,166.626709 166.028427,152.804749 172.445663,138.620819 
	C177.486191,127.479828 181.637283,115.910698 185.691864,104.359192 
	C188.063492,97.602478 189.328293,90.464272 191.401962,83.591507 
	C191.990082,81.642334 194.037476,80.164436 194.786057,78.227127 
	C197.494293,71.218300 199.930496,64.104477 202.477768,57.033306 
	C203.783951,53.407398 204.974762,49.732475 206.454285,46.178173 
	C208.812469,40.512974 212.315826,35.138226 213.607254,29.261026 
	C215.331604,21.413555 220.562057,15.523506 223.455887,8.389399 
	C224.280212,6.357208 227.766525,5.378402 230.072754,3.983763 
	C231.424957,3.166053 232.857376,2.480963 234.126862,1.368105 
	C237.692902,1.000000 241.385818,1.000000 245.539368,1.000003 
	C247.030502,2.014632 247.930206,3.227593 249.114670,4.008820 
	C253.719711,7.046084 254.959076,10.213949 253.138306,14.470859 
	C250.326508,21.044788 248.427094,28.002254 245.856567,34.687805 
	C242.747284,42.774586 239.118912,50.664982 236.112656,58.787476 
	C230.478485,74.010139 225.017639,89.299599 219.702194,104.636650 
	C216.068710,115.120651 212.657440,125.687790 209.422333,136.301727 
	C206.993347,144.270950 205.058411,152.389572 202.784988,160.408081 
	C202.034241,163.056076 200.637802,165.533905 200.006516,168.200790 
	C195.863846,185.701981 191.549042,203.228455 193.142410,221.428070 
	C193.563644,226.239334 195.480408,230.900208 196.342056,235.696335 
	C198.230301,246.206619 205.837067,252.753296 212.543396,260.001190 
	C213.191223,260.701355 212.998154,263.511932 212.549484,263.686951 
	C208.341141,265.328613 204.078110,267.246552 199.663116,267.843109 
	C193.210098,268.715088 187.094589,267.488831 180.840012,264.616180 
	C172.440979,260.758545 169.009964,253.429993 165.346786,246.267899 
	C160.795822,237.370026 159.306702,227.667191 159.912750,217.571930 
	C160.356506,210.180069 159.999649,202.740143 159.999649,194.215897 
	C157.979797,195.409546 156.624054,195.783432 155.959427,196.673416 
	C151.892471,202.119385 148.294128,207.941772 143.958359,213.155319 
	C133.012360,226.317337 121.614853,239.074768 103.823441,243.064362 
	C91.317200,245.868820 79.202217,242.484451 76.988586,227.835785 
	C76.120964,222.094345 75.019531,216.388245 73.827187,209.530777 
	C70.136086,213.938278 67.110062,217.762421 63.851372,221.376755 
	C61.198009,224.319717 58.419147,227.189484 55.419106,229.769852 
	C51.630753,233.028290 47.933193,236.732880 43.526680,238.852707 
	C36.808311,242.084656 30.753189,247.152435 22.231249,246.154816 
	C13.222771,245.100235 6.540964,240.415192 3.725187,231.559433 
	C3.401946,230.542816 2.427577,229.733246 1.377555,228.913834 
	C1.000000,221.312424 1.000000,213.624832 0.999999,205.468628 
z"/>
<path fill="#044EA2" opacity="1.000000" stroke="none" 
	d="
M507.468658,330.000000 
	C505.411194,328.996185 503.825958,327.986664 502.232849,326.989746 
	C498.858398,324.878113 495.371613,322.920258 492.172821,320.570068 
	C491.283600,319.916779 491.242584,318.109039 490.880646,317.033569 
	C498.663605,315.950958 506.027832,315.535675 513.079651,313.829407 
	C532.778748,309.062988 550.323792,300.117401 564.088074,284.861847 
	C571.016296,277.182892 578.445190,269.700775 583.933716,261.043030 
	C590.578735,250.560989 595.431824,238.940140 601.011902,227.787888 
	C602.308411,225.196655 603.556824,222.562698 604.570251,219.852295 
	C606.957275,213.468109 609.214111,207.034515 611.433533,200.589890 
	C611.599854,200.106842 611.050537,199.377350 610.565857,198.001526 
	C609.214539,199.194901 607.848267,199.974716 607.080688,201.146652 
	C600.815308,210.712662 593.009216,218.685425 583.989624,225.769165 
	C576.337402,231.779053 567.980103,236.272964 559.120911,239.851868 
	C551.739014,242.834000 543.894775,243.473312 536.010376,241.632568 
	C532.637451,240.845123 527.721680,233.750107 526.894897,229.778641 
	C525.002991,220.691559 527.141907,212.087143 530.054688,203.761627 
	C534.876709,189.978989 540.431396,176.454300 545.551941,162.773987 
	C549.696350,151.701508 554.491333,140.773499 557.406494,129.374466 
	C559.375183,121.676407 559.009521,113.264175 558.875549,105.184875 
	C558.778748,99.346741 563.624939,98.723854 566.503235,98.289978 
	C573.594116,97.221054 580.877747,98.308693 586.247559,103.886261 
	C592.742554,110.632607 592.849609,119.055359 590.682861,127.388992 
	C587.388916,140.058151 583.867371,152.697815 579.690002,165.096451 
	C577.197693,172.493759 573.101685,179.335953 570.024536,186.554657 
	C565.945312,196.124008 561.970825,205.749405 558.403564,215.515900 
	C557.705017,217.428604 559.067993,220.094299 559.608154,223.132675 
	C565.415527,220.044510 570.703491,218.326981 574.608521,213.312363 
	C579.131653,207.504028 585.200562,202.927170 590.047791,197.338165 
	C603.093994,182.295334 613.551880,165.397369 622.325867,147.659729 
	C628.583923,135.008377 633.664185,121.613174 637.691956,108.080231 
	C640.114990,99.938858 655.471252,95.062782 661.433899,98.095490 
	C662.748596,98.764137 664.013000,101.276749 663.860107,102.795227 
	C663.019531,111.144646 662.009949,119.499313 660.518677,127.754692 
	C659.030884,135.990280 656.161621,144.026993 655.230164,152.300873 
	C653.701355,165.880295 649.312927,178.647202 645.621765,191.623138 
	C641.850708,204.879700 638.055969,218.144272 633.688599,231.210449 
	C631.366882,238.156677 628.018005,244.792877 624.758362,251.383835 
	C620.735535,259.517883 617.041321,267.958923 611.894592,275.355408 
	C605.697510,284.261230 598.157227,292.237457 591.121216,300.550781 
	C589.348816,302.644897 587.072327,304.326385 585.392578,306.481934 
	C581.430969,311.565826 576.286926,314.815033 570.449097,317.329895 
	C564.147644,320.044586 558.074219,323.287384 551.780090,326.020782 
	C548.588928,327.406677 545.131165,328.178497 541.896973,329.613953 
	C530.645752,330.000000 519.291565,330.000000 507.468658,330.000000 
z"/>
<path fill="#044EA2" opacity="1.000000" stroke="none" 
	d="
M760.000000,126.533112 
	C758.996704,127.967758 758.091736,129.073715 756.968628,129.873123 
	C754.940491,131.316696 752.908508,133.050430 750.611206,133.664429 
	C749.774475,133.888046 747.985291,131.395584 746.956299,129.915878 
	C740.056152,119.993340 730.938599,113.648308 718.639648,113.102303 
	C712.066711,112.810509 707.261047,121.362755 708.107422,128.561829 
	C709.906433,143.862976 717.480896,156.824097 723.823242,170.299149 
	C729.096069,181.501984 733.606689,193.128067 734.598511,205.358246 
	C735.506592,216.554489 730.767395,226.900482 721.802917,233.866592 
	C709.938599,243.086060 696.112549,243.710159 681.514893,241.554825 
	C673.099976,240.312378 665.953064,237.018784 658.927612,233.009521 
	C650.597961,228.255966 651.970215,210.939941 660.038208,206.673569 
	C662.965149,205.125793 665.542114,206.051880 668.056763,208.436554 
	C673.388489,213.492661 678.547241,219.046906 684.756165,222.759109 
	C689.451843,225.566605 694.743958,229.351624 701.480286,226.251022 
	C706.076477,224.135498 707.000305,220.654907 705.742798,217.060272 
	C702.261475,207.108719 698.285706,197.309525 694.034546,187.657501 
	C692.200195,183.492844 688.683777,180.072021 686.828369,175.913162 
	C678.237549,156.656464 674.444153,137.008957 687.346619,118.228882 
	C692.833618,110.242325 700.172302,103.764114 710.227295,100.550819 
	C716.447021,98.563179 722.329712,96.964539 728.898987,96.917267 
	C739.113159,96.843773 748.072083,99.877197 755.973206,106.095230 
	C757.466858,107.270706 758.152588,109.472816 759.605591,111.100601 
	C760.000000,116.022095 760.000000,121.044182 760.000000,126.533112 
z"/>
<path fill="#044EA2" opacity="1.000000" stroke="none" 
	d="
M271.006531,215.155777 
	C266.140808,220.466675 261.350189,225.848938 256.388336,231.068481 
	C251.382172,236.334686 245.616180,240.146896 238.472122,242.472916 
	C230.414932,245.096237 218.910217,241.222794 215.746902,231.209579 
	C212.163696,219.867325 214.220535,209.213303 217.801178,198.497665 
	C219.865295,192.320435 221.762024,186.077499 224.104721,180.007156 
	C225.330048,176.832092 227.687851,174.099548 228.960556,170.936340 
	C233.431351,159.824539 240.093506,149.686722 243.768631,138.267746 
	C246.291733,130.428207 247.962845,122.314842 250.027573,114.327171 
	C250.735275,111.589371 250.610977,107.642731 252.385925,106.374550 
	C256.503967,103.432236 261.599945,101.673332 266.903625,103.504189 
	C277.650818,107.214134 281.917664,117.820358 279.297211,129.051010 
	C275.792480,144.071442 268.856995,157.469315 262.523529,171.274475 
	C256.558197,184.277191 251.572464,197.742508 246.518906,211.141251 
	C245.221512,214.581161 245.293289,218.537460 244.736038,222.256500 
	C245.189865,222.622864 245.643677,222.989212 246.097504,223.355576 
	C250.103226,220.039368 254.487000,217.078979 258.023651,213.321274 
	C262.985931,208.048767 267.651581,202.419418 271.835724,196.511810 
	C277.059296,189.136673 281.819366,181.416931 286.489532,173.671127 
	C290.482452,167.048630 294.233429,160.265610 297.776001,153.391052 
	C300.456635,148.189026 302.411346,142.610870 305.127777,137.430084 
	C306.844574,134.155853 308.978729,130.897964 311.625397,128.363419 
	C315.183014,124.956490 323.893677,127.204132 325.934143,131.997513 
	C327.265839,135.125900 328.568359,138.182877 326.600067,142.199646 
	C322.592438,150.378311 319.501221,159.018555 316.247894,167.550797 
	C313.002838,176.061401 309.619141,184.553223 307.033173,193.271866 
	C304.232483,202.714386 302.069092,212.366684 300.139404,222.029663 
	C299.742157,224.018753 301.603271,226.458847 302.423462,228.691071 
	C304.247498,227.648987 306.143860,226.714508 307.883057,225.546143 
	C315.317047,220.552078 319.046265,212.636124 323.461731,205.323578 
	C326.977600,199.500900 330.273560,193.520081 333.263489,187.411911 
	C336.609406,180.576401 340.942596,174.177444 342.500427,166.489334 
	C342.837799,164.824585 345.542664,163.640732 345.882690,161.975189 
	C347.475616,154.172913 351.801147,147.374588 354.155396,139.793640 
	C356.625000,131.841354 355.041382,125.008659 355.296936,117.644516 
	C355.505066,111.646805 357.310272,105.706726 358.371460,99.734726 
	C358.610901,98.387276 358.701660,97.013405 358.954163,94.853447 
	C361.490021,92.943047 364.537415,90.060387 368.095306,88.108093 
	C373.101379,85.361183 378.320587,87.976234 381.577087,92.679489 
	C385.623657,98.523804 385.883545,104.733826 386.144531,111.422447 
	C386.423309,118.567734 385.939026,125.213615 383.014618,131.886169 
	C378.973724,141.106140 384.726654,148.206482 389.743622,154.837921 
	C396.015808,163.128540 411.332062,161.834808 418.316437,153.357422 
	C425.074768,145.154434 432.100769,137.164093 438.653229,128.801422 
	C446.406036,118.906738 456.885651,112.531013 466.874756,105.368904 
	C473.236145,100.807831 480.603729,99.279015 487.482086,96.322060 
	C496.460999,92.462120 516.202332,96.513031 523.395203,105.885727 
	C524.860535,107.795166 525.905884,110.026894 527.540527,112.775238 
	C521.198914,114.507111 515.412109,117.427284 509.695282,117.296158 
	C503.132050,117.145630 498.677002,120.737175 493.587769,123.109772 
	C480.781250,129.080124 470.896515,139.260208 461.865723,149.500320 
	C452.428253,160.201538 444.904907,172.764297 437.651611,185.160873 
	C432.292725,194.319763 428.423645,204.404007 424.487396,214.312958 
	C423.081360,217.852371 423.334991,222.079788 422.999420,226.007568 
	C422.666168,229.908463 425.222076,230.723770 428.153809,229.800674 
	C435.145935,227.599091 440.721008,223.133118 445.173462,217.448685 
	C450.014740,211.267792 454.902374,205.051071 459.003113,198.378784 
	C465.531677,187.756287 471.302521,176.671387 477.623322,165.916931 
	C483.374756,156.131271 486.995636,145.142578 494.743713,136.463593 
	C498.735413,131.992310 510.420776,129.252838 515.038513,132.766144 
	C518.880554,135.689255 517.581299,140.293503 516.423950,143.797684 
	C512.876526,154.538315 508.114899,164.894882 504.874512,175.714966 
	C501.882355,185.706100 500.571320,196.189041 497.905273,206.293198 
	C495.859070,214.048080 496.780548,221.829575 499.458221,228.598038 
	C501.648956,234.135620 506.669495,239.064316 513.332581,241.088608 
	C517.238892,242.275391 520.957031,244.081482 524.926880,245.676071 
	C516.778320,256.807861 504.815613,259.418915 492.720825,255.300461 
	C483.781677,252.256546 478.025452,246.178589 472.834961,239.325500 
	C470.262726,235.929276 469.138367,231.236099 468.078186,226.951721 
	C467.034271,222.733078 466.899628,218.289459 466.294464,213.362091 
	C463.773621,216.517166 461.581543,219.702408 458.944580,222.462631 
	C454.441772,227.175858 450.310944,232.740570 444.845093,235.923172 
	C436.311951,240.891754 427.923950,246.125351 416.943329,246.476334 
	C409.990875,246.698578 405.500366,244.139359 400.611725,240.897125 
	C399.093323,239.890076 397.474976,237.870911 397.310730,236.178436 
	C396.416595,226.963669 394.323883,217.438934 395.776794,208.531952 
	C397.543640,197.700546 402.447754,187.384628 405.935028,176.826004 
	C406.445953,175.278946 406.626862,173.622879 407.088409,171.401474 
	C394.487213,174.059265 383.011322,175.344742 374.081116,163.512848 
	C372.803436,166.276520 371.958893,168.340179 370.923462,170.303116 
	C365.550476,180.488770 360.621796,190.953964 354.573029,200.724136 
	C349.439087,209.016647 343.217926,216.678848 337.064178,224.285278 
	C330.720947,232.125900 322.247742,238.071396 313.019196,240.997009 
	C305.122925,243.500290 295.713379,245.125702 287.578003,240.797852 
	C280.619324,237.095932 276.512207,230.854889 276.986725,222.400940 
	C277.089203,220.575150 276.975128,218.737213 276.888794,216.124588 
	C277.113861,213.022156 277.410980,210.699997 277.708069,208.377838 
	C277.294739,208.321304 276.881439,208.264771 276.468109,208.208237 
	C274.647583,210.524078 272.827057,212.839935 271.006531,215.155777 
z"/>
<path fill="#E1E3E5" opacity="1.000000" stroke="none" 
	d="
M271.186707,215.502197 
	C272.827057,212.839935 274.647583,210.524078 276.468109,208.208237 
	C276.881439,208.264771 277.294739,208.321304 277.708069,208.377838 
	C277.410980,210.699997 277.113861,213.022156 276.829651,215.674011 
	C275.017303,215.952011 273.192108,215.900314 271.186707,215.502197 
z"/>
</svg>